<?xml version="1.0" encoding="utf-8"?>
<!-- Generator: Adobe Illustrator 26.0.3, SVG Export Plug-In . SVG Version: 6.00 Build 0)  -->
<svg version="1.0" id="Layer_1" xmlns="http://www.w3.org/2000/svg" xmlns:xlink="http://www.w3.org/1999/xlink" x="0px" y="0px"
	 viewBox="0 0 324 230" style="enable-background:new 0 0 324 230;" xml:space="preserve">
<style type="text/css">
	.st0{fill:#FF5761;}
	.st1{fill:#FFFFFF;}
	.st2{fill:none;stroke:#FFFFFF;stroke-width:0.25;stroke-miterlimit:10;}
</style>
<g id="g14114">
	<path id="path14116" class="st0" d="M252.6,114.9l-4.9,6.8l3.8,7.4l-5.9,6l2.6,7.9l-6.7,4.9l1.3,8.2l-7.4,3.8v8.3l-7.9,2.6
		l-1.3,8.2l-8.2,1.3l-2.6,7.9h-8.3l-3.8,7.4l-8.2-1.3l-4.9,6.7l-7.9-2.6l-5.9,5.9l-7.4-3.8l-6.8,4.9l-6.8-4.9l-7.4,3.8l-6-5.9
		l-7.9,2.6l-4.9-6.7l-8.2,1.3l-3.8-7.4h-8.4l-2.6-7.9l-8.2-1.3l-1.3-8.2l-7.9-2.6v-8.3l-7.4-3.8l1.3-8.2l-6.7-4.9l2.5-7.9l-5.9-5.9
		l3.8-7.4l-4.9-6.8l4.9-6.8l-3.8-7.4l5.9-6l-2.6-7.9l6.7-4.9L81.2,74l7.4-3.8v-8.4l7.9-2.6l1.3-8.2l8.2-1.3l2.6-7.9h8.3l3.8-7.4
		l8.2,1.3l4.9-6.7l7.9,2.5l5.9-5.9l7.4,3.8l6.8-4.9l6.8,4.9l7.4-3.8l6,5.9l7.9-2.6l4.9,6.7l8.2-1.3l3.8,7.4h8.3l2.6,7.9l8.3,1.3
		l1.3,8.2l7.9,2.6v8.3l7.4,3.8l-1.2,8.3l6.7,4.9l-2.5,7.9l5.9,5.9l-3.8,7.4L252.6,114.9z"/>
</g>
<g id="g14120">
	<g id="g14126">
		<path id="path14128" class="st1" d="M204.4,140.2l-22.6-59.9c-1.2-3.1-4.7-4.7-7.8-3.5c-1.6,0.6-2.9,1.9-3.5,3.5l-8.8,23.2
			l-6.5,17.1l-0.5,1.2l0,0c0,0-3.1,8.1-3.1,8.2c-2.8,8.7-9.2,11.1-13.9,9.5c-1.8-0.6-4.6-2.1-3.5-5.6l13-34.4l6.2,16.4l6.5-17
			l-7-18.7c-1.2-3.1-4.7-4.7-7.8-3.5c-1.6,0.6-2.9,1.9-3.5,3.5l-18.8,49.6c0,0.1-0.1,0.2-0.1,0.3c-2.9,9.1,1.8,18,11.3,21
			c9.4,3,21.7-0.8,27.6-13.5l14.5-38.1l16.9,44.9c1.2,3.1,4.7,4.7,7.8,3.5S205.6,143.3,204.4,140.2L204.4,140.2"/>
	</g>
	<g id="g14130">
		<path id="path14132" class="st1" d="M144.1,66l2.5,7.5h0.3L144.1,66z"/>
	</g>
	<g id="g14134">
		<path id="path14136" class="st2" d="M144.1,66l2.5,7.5h0.3L144.1,66z"/>
	</g>
</g>
<g id="g14138">
	<path id="path14140" class="st1" d="M162.3,93.8L162,62.8l-0.8,31l0.5,1.4L162.3,93.8z"/>
</g>
<g id="g14142">
	<path id="path14144" class="st2" d="M162.3,93.8L162,62.8l-0.8,31l0.5,1.4L162.3,93.8z"/>
</g>
<g id="g14146">
	<path id="path14148" class="st1" d="M202,81.5l-12.7,10.3l0.2,0.7L202,81.5z"/>
</g>
<g id="g14150">
	<path id="path14152" class="st2" d="M202,81.5l-12.7,10.3l0.2,0.7L202,81.5z"/>
</g>
<g id="g14154">
	<path id="path14156" class="st1" d="M211.1,133l-7.4-2.8l0.1,0.4L211.1,133z"/>
</g>
<g id="g14158">
	<path id="path14160" class="st2" d="M211.1,133l-7.4-2.8l0.1,0.4L211.1,133z"/>
</g>
<g id="g14162">
	<path id="path14164" class="st1" d="M109.7,115.1l15.5,0.3l0.2-0.6L109.7,115.1z"/>
</g>
<g id="g14166">
	<path id="path14168" class="st2" d="M109.7,115.1l15.5,0.3l0.2-0.6L109.7,115.1z"/>
</g>
<g id="g14170">
	<path id="path14172" class="st1" d="M110.5,106.1l17,3.3l0.2-0.6L110.5,106.1z"/>
</g>
<g id="g14174">
	<path id="path14176" class="st2" d="M110.5,106.1l17,3.3l0.2-0.6L110.5,106.1z"/>
</g>
<g id="g14178">
	<path id="path14180" class="st1" d="M110.5,124.2l12.1-1.9l0.2-0.5L110.5,124.2z"/>
</g>
<g id="g14182">
	<path id="path14184" class="st2" d="M110.5,124.2l12.1-1.9l0.2-0.5L110.5,124.2z"/>
</g>
<g id="g14188">
	<g id="g14194">
		<path id="path14196" class="st1" d="M112.9,133l6.7-2.3c0-0.1,0-0.2,0.1-0.3L112.9,133z"/>
	</g>
	<g id="g14198">
		<path id="path14200" class="st2" d="M112.9,133l6.7-2.3c0-0.1,0-0.2,0.1-0.3L112.9,133z"/>
	</g>
</g>
<g id="g14202">
	<path id="path14204" class="st1" d="M211.1,97.2l-17.5,6l0.2,0.7L211.1,97.2z"/>
</g>
<g id="g14206">
	<path id="path14208" class="st2" d="M211.1,97.2l-17.5,6l0.2,0.7L211.1,97.2z"/>
</g>
<g id="g14212">
	<g id="g14218">
		<path id="path14220" class="st1" d="M179.9,66l-2.9,7.5h0.3L179.9,66z"/>
	</g>
	<g id="g14222">
		<path id="path14224" class="st2" d="M179.9,66l-2.9,7.5h0.3L179.9,66z"/>
	</g>
</g>
<g id="g14226">
	<path id="path14228" class="st1" d="M112.9,97.3l16.8,6.4l0.2-0.7L112.9,97.3z"/>
</g>
<g id="g14230">
	<path id="path14232" class="st2" d="M112.9,97.3l16.8,6.4l0.2-0.7L112.9,97.3z"/>
</g>
<g id="g14236">
	<g id="g14242">
		<path id="path14244" class="st1" d="M188.1,69.9l-4.6,7.5l0.2,0.3L188.1,69.9z"/>
	</g>
	<g id="g14246">
		<path id="path14248" class="st2" d="M188.1,69.9l-4.6,7.5l0.2,0.3L188.1,69.9z"/>
	</g>
</g>
<g id="g14250">
	<path id="path14252" class="st1" d="M195.6,75.1l-8.8,10.1l0.2,0.6L195.6,75.1z"/>
</g>
<g id="g14254">
	<path id="path14256" class="st2" d="M195.6,75.1l-8.8,10.1l0.2,0.6L195.6,75.1z"/>
</g>
<g id="g14258">
	<path id="path14260" class="st1" d="M213.5,106.1l-17.8,2.7l0.2,0.7L213.5,106.1z"/>
</g>
<g id="g14262">
	<path id="path14264" class="st2" d="M213.5,106.1l-17.8,2.7l0.2,0.7L213.5,106.1z"/>
</g>
<g id="g14266">
	<path id="path14268" class="st1" d="M213.5,124.2l-13-2.5l0.2,0.5L213.5,124.2z"/>
</g>
<g id="g14270">
	<path id="path14272" class="st2" d="M213.5,124.2l-13-2.5l0.2,0.5L213.5,124.2z"/>
</g>
<g id="g14274">
	<path id="path14276" class="st1" d="M198.2,115.4l16.1-0.3l-16.3-0.3L198.2,115.4z"/>
</g>
<g id="g14278">
	<path id="path14280" class="st2" d="M214.3,115.1l-16.4-0.3l0.2,0.6L214.3,115.1z"/>
</g>
<g id="g14282">
	<path id="path14284" class="st1" d="M207.3,89l-15.8,8.7l0.2,0.7L207.3,89z"/>
</g>
<g id="g14286">
	<path id="path14288" class="st2" d="M207.3,89l-15.8,8.7l0.2,0.7L207.3,89z"/>
</g>
<g id="g14290">
	<path id="path14292" class="st1" d="M122,81.5l12.1,10.6l0.2-0.6L122,81.5z"/>
</g>
<g id="g14294">
	<path id="path14296" class="st2" d="M122,81.5l12.1,10.6l0.2-0.6L122,81.5z"/>
</g>
<g id="g14300">
	<g id="g14306">
		<path id="path14308" class="st1" d="M135.9,69.9l4.1,7.4l0.2-0.3L135.9,69.9z"/>
	</g>
	<g id="g14310">
		<path id="path14312" class="st2" d="M135.9,69.9l4.1,7.4l0.2-0.3L135.9,69.9z"/>
	</g>
</g>
<g id="g14314">
	<path id="path14316" class="st1" d="M128.4,75.1l8.2,10.2l0.2-0.6L128.4,75.1z"/>
</g>
<g id="g14318">
	<path id="path14320" class="st2" d="M128.4,75.1l8.2,10.2l0.2-0.6L128.4,75.1z"/>
</g>
<g id="g14324">
	<g id="g14330">
		<path id="path14332" class="st1" d="M156.4,81.2L153,63.6l2.3,14.7c0.2,0.3,0.3,0.6,0.4,0.9L156.4,81.2z"/>
	</g>
	<g id="g14334">
		<path id="path14336" class="st2" d="M156.4,81.2L153,63.6l2.3,14.7c0.2,0.3,0.3,0.6,0.4,0.9L156.4,81.2z"/>
	</g>
</g>
<g id="g14338">
	<path id="path14340" class="st1" d="M116.7,89l15.1,9.1l0.2-0.6L116.7,89z"/>
</g>
<g id="g14342">
	<path id="path14344" class="st2" d="M116.7,89l15.1,9.1l0.2-0.6L116.7,89z"/>
</g>
<g id="g14348">
	<g id="g14354">
		<path id="path14356" class="st1" d="M167.6,81.2l3.4-17.6l-2.3,14.7c-0.2,0.3-0.3,0.6-0.4,0.9L167.6,81.2z"/>
	</g>
	<g id="g14358">
		<path id="path14360" class="st2" d="M167.6,81.2l3.4-17.6l-2.3,14.7c-0.2,0.3-0.3,0.6-0.4,0.9L167.6,81.2z"/>
	</g>
	<g id="g14362">
		<path id="path14364" class="st1" d="M162,194.3c-43.8,0-79.3-35.5-79.3-79.3c0-43.8,35.5-79.3,79.3-79.3
			c43.8,0,79.3,35.5,79.3,79.3C241.3,158.8,205.8,194.3,162,194.3 M162,36.3c-43.5,0-78.7,35.3-78.7,78.7s35.3,78.7,78.7,78.7
			s78.7-35.3,78.7-78.7v0C240.7,71.5,205.5,36.3,162,36.3"/>
	</g>
	<g id="g14366">
		<path id="path14368" class="st2" d="M162,194.3c-43.8,0-79.3-35.5-79.3-79.3c0-43.8,35.5-79.3,79.3-79.3
			c43.8,0,79.3,35.5,79.3,79.3C241.3,158.8,205.8,194.3,162,194.3z M162,36.3c-43.5,0-78.7,35.3-78.7,78.7s35.3,78.7,78.7,78.7
			s78.7-35.3,78.7-78.7v0C240.7,71.5,205.5,36.3,162,36.3z"/>
	</g>
	<g id="g14370">
		<path id="path14372" class="st1" d="M162,170.3c-30.5,0-55.3-24.8-55.3-55.3s24.8-55.3,55.3-55.3s55.3,24.8,55.3,55.3v0
			C217.3,145.5,192.5,170.3,162,170.3 M162,60.3c-30.2,0-54.7,24.5-54.7,54.7s24.5,54.7,54.7,54.7c30.2,0,54.7-24.5,54.7-54.7
			c0,0,0,0,0,0C216.7,84.8,192.2,60.3,162,60.3"/>
	</g>
	<g id="g14374">
		<path id="path14376" class="st2" d="M162,170.3c-30.5,0-55.3-24.8-55.3-55.3s24.8-55.3,55.3-55.3s55.3,24.8,55.3,55.3v0
			C217.3,145.5,192.5,170.3,162,170.3z M162,60.3c-30.2,0-54.7,24.5-54.7,54.7s24.5,54.7,54.7,54.7c30.2,0,54.7-24.5,54.7-54.7
			c0,0,0,0,0,0C216.7,84.8,192.2,60.3,162,60.3L162,60.3z"/>
	</g>
	<g id="g14378">
		<path id="path14380" class="st1" d="M100.7,100.2c1.1,0.2,1.8,0,2-1c0.2-1-0.3-1.5-1.4-1.8l-9-2.2l0.3-1.2l8.9,2.1
			c1.8,0.4,2.8,1.5,2.3,3.3s-1.8,2.3-3.6,1.9l-8.9-2.1l0.4-1.3L100.7,100.2z"/>
	</g>
	<g id="g14382">
		<path id="path14384" class="st2" d="M100.7,100.2c1.1,0.2,1.8,0,2-1c0.2-1-0.3-1.5-1.4-1.8l-9-2.2l0.3-1.2l8.9,2.1
			c1.8,0.4,2.8,1.5,2.3,3.3s-1.8,2.3-3.6,1.9l-8.9-2.1l0.4-1.3L100.7,100.2z"/>
	</g>
</g>
<g id="g14386">
	<path id="path14388" class="st1" d="M110,83.9l-0.6,1l-10.3-6.3l0.9-1.4l8.9,2.2l-7.4-4.5l0.6-1l10.3,6.2l-0.7,1.2l-9.9-2.4
		L110,83.9z"/>
</g>
<g id="g14390">
	<path id="path14392" class="st2" d="M110,83.9l-0.6,1l-10.3-6.3l0.9-1.4l8.9,2.2l-7.4-4.5l0.6-1l10.3,6.2l-0.7,1.2l-9.9-2.4
		L110,83.9z"/>
</g>
<g id="g14394">
	<path id="path14396" class="st1" d="M113.8,60.3l8.2,8.9l-1,0.9l-8.2-8.9L113.8,60.3z"/>
</g>
<g id="g14398">
	<path id="path14400" class="st2" d="M113.8,60.3l8.2,8.9l-1,0.9l-8.2-8.9L113.8,60.3z"/>
</g>
<g id="g14402">
	<path id="path14404" class="st1" d="M128.1,50.2l6.5,8.5l-3-10.3l1.1-0.6l3.4,11.8l-1.8,0.9l-7.4-9.8L128.1,50.2z"/>
</g>
<g id="g14406">
	<path id="path14408" class="st2" d="M128.1,50.2l6.5,8.5l-3-10.3l1.1-0.6l3.4,11.8l-1.8,0.9l-7.4-9.8L128.1,50.2z"/>
</g>
<g id="g14410">
	<path id="path14412" class="st1" d="M153.4,47.5l0.2,1.2l-2.9,0.5l0.7,4.2l3.6-0.6l0.2,1.2l-4.9,0.8l-1.9-11.9l4.9-0.8l0.2,1.2
		l-3.6,0.6l0.6,4.1L153.4,47.5z"/>
</g>
<g id="g14414">
	<path id="path14416" class="st2" d="M153.4,47.5l0.2,1.2l-2.9,0.5l0.7,4.2l3.6-0.6l0.2,1.2l-4.9,0.8l-1.9-11.9l4.9-0.8l0.2,1.2
		l-3.6,0.6l0.6,4.1L153.4,47.5z"/>
</g>
<g id="g14420">
	<g id="g14426">
		<path id="path14428" class="st1" d="M172.5,42.4c1.9,0.3,2.5,1.3,2.3,3.1l-0.1,1c-0.2,1.3-0.8,2.1-1.8,2.2c1,0.5,1.3,1.4,1.1,2.7
			l-0.3,1.9c-0.1,0.5-0.1,1,0,1.5l-1.3-0.2c-0.1-0.5-0.1-1,0-1.5l0.3-1.9c0.2-1.3-0.4-1.9-1.5-2l-0.9-0.1l-0.8,5.1l-1.3-0.2l1.8-12
			L172.5,42.4z M171.4,48c1,0.2,1.7-0.1,1.9-1.4l0.2-1.2c0.2-1.1-0.2-1.7-1.1-1.8l-1.3-0.2l-0.6,4.4L171.4,48z"/>
	</g>
	<g id="g14430">
		<path id="path14432" class="st2" d="M172.5,42.4c1.9,0.3,2.5,1.3,2.3,3.1l-0.1,1c-0.2,1.3-0.8,2.1-1.8,2.2c1,0.5,1.3,1.4,1.1,2.7
			l-0.3,1.9c-0.1,0.5-0.1,1,0,1.5l-1.3-0.2c-0.1-0.5-0.1-1,0-1.5l0.3-1.9c0.2-1.3-0.4-1.9-1.5-2l-0.9-0.1l-0.8,5.1l-1.3-0.2l1.8-12
			L172.5,42.4z M171.4,48c1,0.2,1.7-0.1,1.9-1.4l0.2-1.2c0.2-1.1-0.2-1.7-1.1-1.8l-1.3-0.2l-0.6,4.4L171.4,48z"/>
	</g>
	<g id="g14434">
		<path id="path14436" class="st1" d="M194.7,52.7l-0.1,0.3l-1.1-0.6l0.2-0.3c0.5-1,0.4-1.7-0.5-2.2s-1.5,0-2,0.9
			c-1.2,2.4,2.3,4.5,0.9,7.5c-0.8,1.7-2.1,2.3-3.8,1.5c-1.7-0.8-1.9-2.3-1.1-3.9l0.3-0.6l1.1,0.5l-0.3,0.7c-0.5,1-0.4,1.7,0.5,2.2
			s1.6,0,2-0.9c1.2-2.4-2.3-4.4-0.8-7.5c0.8-1.7,2.1-2.3,3.7-1.5S195.4,51.1,194.7,52.7"/>
	</g>
	<g id="g14438">
		<path id="path14440" class="st2" d="M194.7,52.7l-0.1,0.3l-1.1-0.6l0.2-0.3c0.5-1,0.4-1.7-0.5-2.2s-1.5,0-2,0.9
			c-1.2,2.4,2.3,4.5,0.9,7.5c-0.8,1.7-2.1,2.3-3.8,1.5c-1.7-0.8-1.9-2.3-1.1-3.9l0.3-0.6l1.1,0.5l-0.3,0.7c-0.5,1-0.4,1.7,0.5,2.2
			s1.6,0,2-0.9c1.2-2.4-2.3-4.4-0.8-7.5c0.8-1.7,2.1-2.3,3.7-1.5S195.5,51.1,194.7,52.7z"/>
	</g>
</g>
<g id="g14442">
	<path id="path14444" class="st1" d="M210.3,60.3l-8,9l-1-0.9l8-9L210.3,60.3z"/>
</g>
<g id="g14446">
	<path id="path14448" class="st2" d="M210.3,60.3l-8,9l-1-0.9l8-9L210.3,60.3z"/>
</g>
<g id="g14450">
	<path id="path14452" class="st1" d="M212,80.6l9.1-5.9l-1.2-1.9l1-0.7l3.1,4.9l-1,0.7l-1.2-1.9l-9.1,5.9L212,80.6z"/>
</g>
<g id="g14454">
	<path id="path14456" class="st2" d="M212,80.6l9.1-5.9l-1.2-1.9l1-0.7l3.1,4.9l-1,0.7l-1.2-1.9l-9.1,5.9L212,80.6z"/>
</g>
<g id="g14458">
	<path id="path14460" class="st1" d="M226.6,97.5l-1.2,0.3l-0.8-2.9l-4.1,1.2l1,3.5l-1.2,0.3l-1.4-4.8l11.6-3.2l1.4,4.8l-1.2,0.3
		l-1-3.5l-4,1.1L226.6,97.5z M234.1,95.4l-2.1-1.1l-0.2-0.9l2,0.7L234.1,95.4z"/>
</g>
<g id="g14462">
	<path id="path14464" class="st2" d="M226.6,97.5l-1.2,0.3l-0.8-2.9l-4.1,1.2l1,3.5l-1.2,0.3l-1.4-4.8l11.6-3.2l1.4,4.8l-1.2,0.3
		l-1-3.5l-4,1.1L226.6,97.5z M234.1,95.4l-2.1-1.1l-0.2-0.9l2,0.7L234.1,95.4z"/>
</g>
<g id="g14468">
	<g id="g14474">
		<path id="path14476" class="st1" d="M220.1,130.1c0.4-1.8,1.6-2.4,3.3-2l0.9,0.2c1.3,0.3,2,1,2.1,2c0.6-1,1.5-1.2,2.8-0.9l1.8,0.4
			c0.5,0.2,1,0.2,1.5,0.1l-0.3,1.3c-0.5,0.1-1,0-1.5-0.1l-1.9-0.4c-1.3-0.3-1.9,0.2-2.2,1.3l-0.2,0.9l5,1.2l-0.3,1.3l-11.7-2.8
			L220.1,130.1z M225.6,131.8c0.2-1,0.1-1.7-1.2-2l-1.1-0.3c-1.1-0.3-1.7,0-1.9,1l-0.3,1.3l4.3,1L225.6,131.8z"/>
	</g>
	<g id="g14478">
		<path id="path14480" class="st2" d="M220.1,130.1c0.4-1.8,1.6-2.4,3.3-2l0.9,0.2c1.3,0.3,2,1,2.1,2c0.6-1,1.5-1.2,2.8-0.9l1.8,0.4
			c0.5,0.2,1,0.2,1.5,0.1l-0.3,1.3c-0.5,0.1-1,0-1.5-0.1l-1.9-0.4c-1.3-0.3-1.9,0.2-2.2,1.3l-0.2,0.9l5,1.2l-0.3,1.3l-11.7-2.8
			L220.1,130.1z M225.6,131.8c0.2-1,0.1-1.7-1.2-2l-1.1-0.3c-1.1-0.3-1.7,0-1.9,1l-0.3,1.3l4.3,1L225.6,131.8z"/>
	</g>
</g>
<g id="g14482">
	<path id="path14484" class="st1" d="M219.9,146l1.1,0.6l-1.4,2.6l3.8,2.1l1.8-3.2l1.1,0.6l-2.4,4.3l-10.6-5.9l2.4-4.3l1.1,0.6
		l-1.8,3.2l3.6,2L219.9,146z"/>
</g>
<g id="g14486">
	<path id="path14488" class="st2" d="M219.9,146l1.1,0.6l-1.4,2.6l3.8,2.1l1.8-3.2l1.1,0.6l-2.4,4.3l-10.6-5.9l2.4-4.3l1.1,0.6
		l-1.8,3.2l3.6,2L219.9,146z"/>
</g>
<g id="g14490">
	<path id="path14492" class="st1" d="M206.5,155.9l8.9,8.1l-0.9,1l-8.9-8.1L206.5,155.9z"/>
</g>
<g id="g14494">
	<path id="path14496" class="st2" d="M206.5,155.9l8.9,8.1l-0.9,1l-8.9-8.1L206.5,155.9z"/>
</g>
<g id="g14498">
	<path id="path14500" class="st1" d="M200.5,176.7l-6.8-10l1.1-0.8l6.1,9l2.9-1.9l0.7,1L200.5,176.7z"/>
</g>
<g id="g14502">
	<path id="path14504" class="st2" d="M200.5,176.7l-6.8-10l1.1-0.8l6.1,9l2.9-1.9l0.7,1L200.5,176.7z"/>
</g>
<g id="g14506">
	<path id="path14508" class="st1" d="M183.8,184.5l-4-11.4l1.3-0.4l3.6,10.2l3.2-1.1l0.4,1.2L183.8,184.5z"/>
</g>
<g id="g14510">
	<path id="path14512" class="st2" d="M183.8,184.5l-4-11.4l1.3-0.4l3.6,10.2l3.2-1.1l0.4,1.2L183.8,184.5z"/>
</g>
<g id="g14514">
	<path id="path14516" class="st1" d="M169,180.8l0.1,1.2l-2.9,0.2l0.3,4.3l3.6-0.3l0.1,1.2l-4.9,0.4l-0.9-12l4.9-0.4l0.1,1.2
		l-3.6,0.3l0.3,4.1L169,180.8z"/>
</g>
<g id="g14518">
	<path id="path14520" class="st2" d="M169,180.8l0.1,1.2l-2.9,0.2l0.3,4.3l3.6-0.3l0.1,1.2l-4.9,0.4l-0.9-12l4.9-0.4l0.1,1.2
		l-3.6,0.3l0.3,4.1L169,180.8z"/>
</g>
<g id="g14524">
	<g id="g14530">
		<path id="path14532" class="st1" d="M151,174.8c1.9,0.4,2.4,1.6,2.1,3.4l-0.3,1.4c-0.3,1.9-1.4,2.7-3.3,2.3l-1.2-0.2l-0.9,4.7
			l-1.3-0.2l2.2-11.9L151,174.8z M149.8,180.8c1,0.2,1.5-0.2,1.8-1.3l0.3-1.6c0.2-1.1-0.1-1.7-1-1.9l-1.3-0.2l-0.9,4.8L149.8,180.8z
			"/>
	</g>
	<g id="g14534">
		<path id="path14536" class="st2" d="M151,174.8c1.9,0.4,2.4,1.6,2.1,3.4l-0.3,1.4c-0.3,1.9-1.4,2.7-3.3,2.3l-1.2-0.2l-0.9,4.7
			l-1.3-0.2l2.2-11.9L151,174.8z M149.8,180.8c1,0.2,1.5-0.2,1.8-1.3l0.3-1.6c0.2-1.1-0.1-1.7-1-1.9l-1.3-0.2l-0.9,4.8L149.8,180.8z
			"/>
	</g>
</g>
<g id="g14538">
	<path id="path14540" class="st1" d="M129.9,180.3l4.8-9.7l-2-1l0.5-1.1l5.2,2.5l-0.5,1.1l-2-1l-4.8,9.7L129.9,180.3z"/>
</g>
<g id="g14542">
	<path id="path14544" class="st2" d="M129.9,180.3l4.8-9.7l-2-1l0.5-1.1l5.2,2.5l-0.5,1.1l-2-1l-4.8,9.7L129.9,180.3z"/>
</g>
<g id="g14546">
	<path id="path14548" class="st1" d="M113.2,168.8l-0.9-0.8l8-9l1.3,1.1l-3.7,8.4l5.8-6.5l0.9,0.8l-8,9l-1-0.9l4.2-9.4L113.2,168.8z
		"/>
</g>
<g id="g14550">
	<path id="path14552" class="st2" d="M113.2,168.8l-0.9-0.8l8-9l1.3,1.1l-3.7,8.4l5.8-6.5l0.9,0.8l-8,9l-1-0.9l4.2-9.4L113.2,168.8z
		"/>
</g>
<g id="g14556">
	<g id="g14562">
		<path id="path14564" class="st1" d="M107.8,147.7c1.5-1,3-0.9,4,0.7s0.5,3-1,4l-5.2,3.4c-1.5,1-3,0.9-4.1-0.7s-0.5-3,1-4
			L107.8,147.7z M103.2,152.2c-0.9,0.6-1.2,1.3-0.7,2.1c0.5,0.8,1.3,0.9,2.2,0.3l5.4-3.5c0.9-0.6,1.2-1.3,0.7-2.1
			c-0.5-0.8-1.3-0.9-2.2-0.3L103.2,152.2z"/>
	</g>
	<g id="g14566">
		<path id="path14568" class="st2" d="M107.8,147.7c1.5-1,3-0.9,4,0.7s0.5,3-1,4l-5.2,3.4c-1.5,1-3,0.9-4.1-0.7s-0.5-3,1-4
			L107.8,147.7z M103.2,152.2c-0.9,0.6-1.2,1.3-0.7,2.1c0.5,0.8,1.3,0.9,2.2,0.3l5.4-3.5c0.9-0.6,1.2-1.3,0.7-2.1
			c-0.5-0.8-1.3-0.9-2.2-0.3L103.2,152.2z"/>
	</g>
</g>
<g id="g14570">
	<path id="path14572" class="st1" d="M93.2,136.7l-0.4-1.2l8.7-4.6l-9.2,2.7l-0.3-1.1l11.6-3.4l0.5,1.8l-8.7,4.6l9.8-0.8l0.5,1.8
		L94,139.7l-0.3-1.2l9.3-2.7L93.2,136.7z"/>
</g>
<g id="g14574">
	<path id="path14576" class="st2" d="M93.2,136.7l-0.4-1.2l8.7-4.6l-9.2,2.7l-0.3-1.1l11.6-3.4l0.5,1.8l-8.7,4.6l9.8-0.8l0.5,1.8
		L94,139.7l-0.3-1.2l9.3-2.7L93.2,136.7z"/>
</g>
<g id="g14580">
	<g id="g14586">
		<path id="path14588" class="st1" d="M96.7,115c0,0.9-0.8,1.7-1.7,1.7c-0.9,0-1.7-0.8-1.7-1.7c0-0.9,0.8-1.7,1.7-1.7
			C95.9,113.3,96.7,114.1,96.7,115"/>
	</g>
	<g id="g14590">
		<path id="path14592" class="st1" d="M230.8,115c0,0.9-0.8,1.7-1.7,1.7c-0.9,0-1.7-0.8-1.7-1.7c0-0.9,0.8-1.7,1.7-1.7
			S230.8,114.1,230.8,115C230.8,115,230.8,115,230.8,115"/>
	</g>
</g>
</svg>
